<?xml version="1.0" encoding="UTF-8" standalone="no"?>
<!DOCTYPE svg PUBLIC "-//W3C//DTD SVG 20010904//EN"
              "http://www.w3.org/TR/2001/REC-SVG-20010904/DTD/svg10.dtd">

<svg xmlns="http://www.w3.org/2000/svg"
     width="0.555556in" height="0.555556in"
     viewBox="0 0 50 50">
  <path id="P"
        fill="none" stroke="black" stroke-width="1"
        d="M 8.42,8.00
           C 9.34,8.00 10.05,8.22 10.55,8.66
             11.05,9.09 11.30,9.70 11.30,10.50
             11.30,11.30 11.05,11.92 10.55,12.36
             10.05,12.79 9.34,13.00 8.42,13.00
             8.42,13.00 5.94,13.00 5.94,13.00
             5.94,13.00 5.94,8.00 5.94,8.00
             5.94,8.00 8.42,8.00 8.42,8.00 Z
           M 3.97,21.00
           C 3.97,21.00 5.94,21.00 5.94,21.00
             5.94,21.00 5.94,15.00 5.94,15.00
             5.94,15.00 8.42,15.00 8.42,15.00
             10.05,15.00 11.29,14.62 12.12,13.86
             12.96,13.10 13.38,11.98 13.38,10.50
             13.38,9.02 12.96,7.90 12.12,7.14
             11.29,6.38 10.05,6.00 8.42,6.00
             8.42,6.00 3.97,6.00 3.97,6.00
             3.97,6.00 3.97,21.00 3.97,21.00 Z
           M 20.75,13.00
           C 20.61,13.00 20.49,13.00 20.39,13.00
             20.29,13.00 20.19,13.00 20.11,13.00
             19.50,13.00 18.99,13.09 18.56,13.25
             18.13,13.42 17.79,13.67 17.53,14.00
             17.53,14.00 17.53,13.00 17.53,13.00
             17.53,13.00 16.27,13.00 16.27,13.00
             16.27,13.00 16.27,21.00 16.27,21.00
             16.27,21.00 17.53,21.00 17.53,21.00
             17.53,21.00 17.53,16.64 17.53,16.64
             17.53,15.79 17.72,15.14 18.09,14.69
             18.48,14.23 19.02,14.00 19.73,14.00
             19.94,14.00 20.12,14.00 20.28,14.00
             20.45,14.00 20.60,14.00 20.75,14.00
             20.75,14.00 20.75,13.00 20.75,13.00 Z
           M 26.88,14.81
           C 27.27,15.36 27.47,16.09 27.47,17.00
             27.47,17.93 27.27,18.66 26.88,19.20
             26.49,19.73 25.96,20.00 25.28,20.00
             24.60,20.00 24.07,19.73 23.67,19.20
             23.29,18.66 23.09,17.93 23.09,17.00
             23.09,16.07 23.29,15.34 23.67,14.81
             24.07,14.27 24.60,14.00 25.28,14.00
             25.96,14.00 26.49,14.27 26.88,14.81 Z
           M 22.70,14.06
           C 22.08,14.77 21.77,15.75 21.77,17.00
             21.77,18.25 22.08,19.23 22.70,19.94
             23.33,20.65 24.19,21.00 25.28,21.00
             26.38,21.00 27.23,20.65 27.86,19.94
             28.48,19.23 28.80,18.25 28.80,17.00
             28.80,15.75 28.48,14.77 27.86,14.06
             27.23,13.36 26.38,13.00 25.28,13.00
             24.19,13.00 23.33,13.36 22.70,14.06 Z
           M 36.20,13.00
           C 36.20,13.00 34.17,15.84 34.17,15.84
             34.17,15.84 32.14,13.00 32.14,13.00
             32.14,13.00 30.66,13.00 30.66,13.00
             30.66,13.00 33.38,16.81 33.38,16.81
             33.38,16.81 30.41,21.00 30.41,21.00
             30.41,21.00 31.89,21.00 31.89,21.00
             31.89,21.00 34.11,17.86 34.11,17.86
             34.11,17.86 36.34,21.00 36.34,21.00
             36.34,21.00 37.83,21.00 37.83,21.00
             37.83,21.00 34.92,16.89 34.92,16.89
             34.92,16.89 37.69,13.00 37.69,13.00
             37.69,13.00 36.20,13.00 36.20,13.00 Z
           M 45.88,13.00
           C 45.88,13.00 44.53,13.00 44.53,13.00
             44.53,13.00 42.14,19.25 42.14,19.25
             42.14,19.25 39.75,13.00 39.75,13.00
             39.75,13.00 38.42,13.00 38.42,13.00
             38.42,13.00 41.52,20.89 41.52,20.89
             41.52,20.89 41.28,21.48 41.28,21.48
             41.05,22.14 40.84,22.55 40.64,22.73
             40.45,22.91 40.19,23.00 39.84,23.00
             39.84,23.00 39.11,23.00 39.11,23.00
             39.11,23.00 39.11,24.00 39.11,24.00
             39.11,24.00 40.11,24.00 40.11,24.00
             40.67,24.00 41.12,23.86 41.45,23.58
             41.80,23.30 42.14,22.71 42.50,21.80
             42.50,21.80 45.88,13.00 45.88,13.00 Z
           M 9.97,44.00
           C 9.97,44.00 11.94,44.00 11.94,44.00
             11.94,44.00 11.94,37.00 11.94,37.00
             11.94,37.00 17.72,37.00 17.72,37.00
             17.72,37.00 17.72,35.00 17.72,35.00
             17.72,35.00 11.94,35.00 11.94,35.00
             11.94,35.00 11.94,31.00 11.94,31.00
             11.94,31.00 18.34,31.00 18.34,31.00
             18.34,31.00 18.34,29.00 18.34,29.00
             18.34,29.00 9.97,29.00 9.97,29.00
             9.97,29.00 9.97,44.00 9.97,44.00 Z
           M 21.31,44.00
           C 21.31,44.00 22.58,44.00 22.58,44.00
             22.58,44.00 22.58,36.00 22.58,36.00
             22.58,36.00 21.31,36.00 21.31,36.00
             21.31,36.00 21.31,44.00 21.31,44.00 Z
           M 21.31,35.00
           C 21.31,35.00 22.58,35.00 22.58,35.00
             22.58,35.00 22.58,33.00 22.58,33.00
             22.58,33.00 21.31,33.00 21.31,33.00
             21.31,33.00 21.31,35.00 21.31,35.00 Z
           M 25.31,44.00
           C 25.31,44.00 26.58,44.00 26.58,44.00
             26.58,44.00 26.58,33.00 26.58,33.00
             26.58,33.00 25.31,33.00 25.31,33.00
             25.31,33.00 25.31,44.00 25.31,44.00 Z
           M 29.30,34.00
           C 29.30,34.00 29.30,36.00 29.30,36.00
             29.30,36.00 28.38,36.00 28.38,36.00
             28.38,36.00 28.38,37.00 28.38,37.00
             28.38,37.00 29.30,37.00 29.30,37.00
             29.30,37.00 29.30,41.44 29.30,41.44
             29.30,42.41 29.48,43.08 29.84,43.45
             30.22,43.82 30.89,44.00 31.86,44.00
             31.86,44.00 33.16,44.00 33.16,44.00
             33.16,44.00 33.16,43.00 33.16,43.00
             33.16,43.00 31.86,43.00 31.86,43.00
             31.34,43.00 30.99,42.91 30.81,42.72
             30.64,42.53 30.56,42.11 30.56,41.44
             30.56,41.44 30.56,37.00 30.56,37.00
             30.56,37.00 33.16,37.00 33.16,37.00
             33.16,37.00 33.16,36.00 33.16,36.00
             33.16,36.00 30.56,36.00 30.56,36.00
             30.56,36.00 30.56,34.00 30.56,34.00
             30.56,34.00 29.30,34.00 29.30,34.00 Z
           M 39.97,36.91
           C 39.38,36.30 38.56,36.00 37.53,36.00
             36.38,36.00 35.46,36.37 34.78,37.11
             34.10,37.84 33.77,38.82 33.77,40.06
             33.77,41.27 34.12,42.23 34.83,42.94
             35.55,43.65 36.52,44.00 37.75,44.00
             38.23,44.00 38.71,43.92 39.19,43.75
             39.66,43.57 40.13,43.32 40.58,43.00
             40.58,43.00 40.58,42.00 40.58,42.00
             40.13,42.34 39.68,42.59 39.22,42.75
             38.77,42.92 38.30,43.00 37.81,43.00
             36.98,43.00 36.33,42.75 35.86,42.23
             35.39,41.73 35.13,40.98 35.08,40.00
             35.08,40.00 40.88,40.00 40.88,40.00
             40.88,40.00 40.88,39.38 40.88,39.38
             40.88,38.34 40.57,37.51 39.97,36.91 Z
           M 35.12,39.02
           C 35.19,38.37 35.43,37.88 35.84,37.53
             36.27,37.18 36.83,37.00 37.53,37.00
             38.16,37.00 38.66,37.18 39.03,37.55
             39.41,37.91 39.60,38.40 39.61,39.00
             39.61,39.00 35.12,39.02 35.12,39.02 Z
           M 47.75,36.00
           C 47.61,36.00 47.49,36.00 47.39,36.00
             47.29,36.00 47.19,36.00 47.11,36.00
             46.50,36.00 45.99,36.09 45.56,36.25
             45.13,36.42 44.79,36.67 44.53,37.00
             44.53,37.00 44.53,36.00 44.53,36.00
             44.53,36.00 43.27,36.00 43.27,36.00
             43.27,36.00 43.27,44.00 43.27,44.00
             43.27,44.00 44.53,44.00 44.53,44.00
             44.53,44.00 44.53,39.64 44.53,39.64
             44.53,38.79 44.72,38.14 45.09,37.69
             45.48,37.23 46.02,37.00 46.73,37.00
             46.94,37.00 47.12,37.00 47.28,37.00
             47.45,37.00 47.60,37.00 47.75,37.00
             47.75,37.00 47.75,36.00 47.75,36.00 Z" />
</svg>
